<svg width="20" height="18" viewBox="0 0 20 18" fill="none" xmlns="http://www.w3.org/2000/svg">
<g filter="url(#filter0_d_2_716)">
<path d="M18.4375 13.4375C18.4375 13.6861 18.3387 13.9246 18.1629 14.1004C17.9871 14.2762 17.7486 14.375 17.5 14.375H2.5C2.25136 14.375 2.0129 14.2762 1.83709 14.1004C1.66127 13.9246 1.5625 13.6861 1.5625 13.4375V0.9375C1.5625 0.68886 1.66127 0.450403 1.83709 0.274587C2.0129 0.0987719 2.25136 0 2.5 0C2.74864 0 2.9871 0.0987719 3.16291 0.274587C3.33873 0.450403 3.4375 0.68886 3.4375 0.9375V7.62109L6.88281 4.60938C7.04456 4.46786 7.25001 4.38622 7.46477 4.37811C7.67953 4.37 7.89055 4.43593 8.0625 4.56484L12.4547 7.85859L16.8828 3.98438C16.9735 3.89383 17.0818 3.82285 17.2011 3.77582C17.3203 3.72878 17.4479 3.7067 17.576 3.71092C17.7041 3.71515 17.83 3.74559 17.9458 3.80038C18.0617 3.85517 18.1651 3.93313 18.2497 4.02946C18.3342 4.12578 18.3981 4.23842 18.4374 4.36041C18.4767 4.48241 18.4906 4.61116 18.4782 4.73873C18.4658 4.8663 18.4273 4.98996 18.3652 5.10209C18.3032 5.21421 18.2187 5.31241 18.1172 5.39062L13.1172 9.76562C12.9554 9.90714 12.75 9.98878 12.5352 9.99689C12.3205 10.005 12.1095 9.93907 11.9375 9.81016L7.54531 6.51875L3.4375 10.1133V12.5H17.5C17.7486 12.5 17.9871 12.5988 18.1629 12.7746C18.3387 12.9504 18.4375 13.1889 18.4375 13.4375Z" fill="#64748B"/>
</g>
<defs>
<filter id="filter0_d_2_716" x="-2.4375" y="0" width="24.9201" height="22.375" filterUnits="userSpaceOnUse" color-interpolation-filters="sRGB">
<feFlood flood-opacity="0" result="BackgroundImageFix"/>
<feColorMatrix in="SourceAlpha" type="matrix" values="0 0 0 0 0 0 0 0 0 0 0 0 0 0 0 0 0 0 127 0" result="hardAlpha"/>
<feOffset dy="4"/>
<feGaussianBlur stdDeviation="2"/>
<feComposite in2="hardAlpha" operator="out"/>
<feColorMatrix type="matrix" values="0 0 0 0 0 0 0 0 0 0 0 0 0 0 0 0 0 0 0.25 0"/>
<feBlend mode="normal" in2="BackgroundImageFix" result="effect1_dropShadow_2_716"/>
<feBlend mode="normal" in="SourceGraphic" in2="effect1_dropShadow_2_716" result="shape"/>
</filter>
</defs>
</svg>
