<svg width="24" height="20" viewBox="0 0 24 20" fill="none" xmlns="http://www.w3.org/2000/svg">
<path d="M12 0.5C12.1569 0.5 12.3027 0.555264 12.4102 0.646484H12.4111L22.6387 9.32129H20.2275V18.9824C20.2274 19.108 20.1737 19.2358 20.0664 19.3359C19.9579 19.4372 19.804 19.4999 19.6367 19.5H4.36328C4.19595 19.4999 4.0421 19.4372 3.93359 19.3359C3.82631 19.2358 3.77255 19.108 3.77246 18.9824V9.32129H1.36133L11.5889 0.646484H11.5898C11.6973 0.555263 11.8431 0.5 12 0.5ZM19.0459 7.71387L18.8691 7.56348L12.3232 2.01172L12 1.73828L11.6768 2.01172L5.13086 7.56348L4.9541 7.71387V18.4639H19.0459V7.71387Z" fill="white" stroke="#64748B"/>
</svg>
